<svg width="22" height="22" viewBox="0 0 22 22" fill="none" xmlns="http://www.w3.org/2000/svg">
<path d="M10.7099 0.5C15.2412 0.5 18.7053 4.29407 18.7053 9.08146L18.7007 10.9081C18.7011 11.2154 18.8999 11.5707 19.4388 12.205C19.5065 12.2847 19.5703 12.3585 19.7096 12.5195C20.7798 13.7577 21.2053 14.4745 21.2053 15.5882C21.2053 16.0893 21.1484 16.4785 20.9109 16.9456C20.4049 17.9409 19.3235 18.5 17.7053 18.5L15.1042 18.5007C14.4363 20.7645 12.9176 22 10.7053 22C8.493 22 6.97437 20.7645 6.30647 18.5007L3.70532 18.5C2.04015 18.5 0.947352 17.9258 0.463297 16.8962C0.253342 16.4497 0.205322 16.0875 0.205322 15.5882C0.205322 14.475 0.630076 13.7582 1.69815 12.5202C1.83723 12.3592 1.90084 12.2854 1.9684 12.2057C2.50703 11.5706 2.70532 11.2151 2.70532 10.9071V9.07895C2.70532 4.29571 6.17735 0.5 10.7099 0.5ZM12.9847 18.5008H8.42592C8.87671 19.5432 9.60398 20 10.7053 20C11.8067 20 12.5339 19.5432 12.9847 18.5008ZM10.7099 2.5C7.32367 2.5 4.70532 5.36245 4.70532 9.07895V10.9071C4.70532 11.8348 4.32092 12.5239 3.49373 13.4993C3.42041 13.5857 3.35119 13.6661 3.21249 13.8266C2.45244 14.7076 2.20532 15.1246 2.20532 15.5882C2.20532 15.8144 2.22129 15.9348 2.27324 16.0453C2.39716 16.3089 2.7609 16.5 3.70532 16.5H17.7053C18.6196 16.5 18.9916 16.3076 19.1281 16.0392C19.1872 15.923 19.2053 15.7989 19.2053 15.5882C19.2053 15.1251 18.9578 14.7081 18.1964 13.8273C18.0575 13.6668 17.9881 13.5864 17.9147 13.5C17.0859 12.5245 16.7007 11.8353 16.7007 10.9071L16.7053 9.07895C16.7053 5.36008 14.094 2.5 10.7099 2.5Z" fill="white"/>
</svg>
