<svg width="27" height="18" viewBox="0 0 27 18" fill="none" xmlns="http://www.w3.org/2000/svg">
<path d="M17.7053 0C24.0767 0 26.7053 4.96513 26.7053 11C26.7053 15.4811 25.4457 18 22.7053 18C21.5644 18 20.8085 17.5189 19.9471 16.5066L19.7842 16.3106C19.6924 16.1975 19.3323 15.7421 19.2417 15.6306L19.0851 15.4421C18.2071 14.4108 17.4774 14 16.2053 14H11.2053C9.9332 14 9.20358 14.4108 8.32556 15.4421L8.16894 15.6306C8.0783 15.7421 7.71828 16.1975 7.62641 16.3106L7.46353 16.5066C6.6021 17.5189 5.84624 18 4.70532 18C1.96461 18 0.705322 15.4814 0.705322 11C0.705322 4.96513 3.33392 0 9.70532 0H17.7053ZM17.7053 2H9.70532C4.78261 2 2.70532 5.92376 2.70532 11C2.70532 14.5186 3.44603 16 4.70532 16C5.12578 16 5.43599 15.8059 5.94312 15.2076L6.50031 14.5146L6.79299 14.1572C8.02596 12.7074 9.24957 12 11.2053 12H16.2053C18.1611 12 19.3847 12.7074 20.6177 14.1572L20.7939 14.3694L21.4675 15.2076C21.9747 15.8059 22.2849 16 22.7053 16C23.9644 16 24.7053 14.5183 24.7053 11C24.7053 5.92376 22.628 2 17.7053 2ZM9.21759 4.5C9.40881 4.5 9.56569 4.53713 9.69606 4.60685C9.82643 4.67658 9.92875 4.77889 9.99847 4.90926C10.0682 5.03963 10.1053 5.19651 10.1053 5.38773L10.1043 6.599L11.3176 6.6C11.5088 6.6 11.6657 6.63713 11.7961 6.70685C11.9264 6.77658 12.0287 6.87889 12.0985 7.00926C12.1682 7.13963 12.2053 7.29651 12.2053 7.48773V7.51227C12.2053 7.70349 12.1682 7.86037 12.0985 7.99074C12.0287 8.12111 11.9264 8.22342 11.7961 8.29315C11.6657 8.36287 11.5088 8.4 11.3176 8.4L10.1043 8.399L10.1053 9.61227C10.1053 9.80349 10.0682 9.96037 9.99847 10.0907C9.92875 10.2211 9.82643 10.3234 9.69606 10.3931C9.56569 10.4629 9.40881 10.5 9.21759 10.5H9.19305C9.00183 10.5 8.84495 10.4629 8.71458 10.3931C8.58421 10.3234 8.4819 10.2211 8.41218 10.0907C8.34245 9.96037 8.30532 9.80349 8.30532 9.61227L8.30432 8.399L7.09305 8.4C6.90183 8.4 6.74495 8.36287 6.61458 8.29315C6.48421 8.22342 6.3819 8.12111 6.31218 7.99074C6.24245 7.86037 6.20532 7.70349 6.20532 7.51227V7.48773C6.20532 7.29651 6.24245 7.13963 6.31218 7.00926C6.3819 6.87889 6.48421 6.77658 6.61458 6.70685C6.74495 6.63713 6.90183 6.6 7.09305 6.6L8.30432 6.599L8.30532 5.38773C8.30532 5.19651 8.34245 5.03963 8.41218 4.90926C8.4819 4.77889 8.58421 4.67658 8.71458 4.60685C8.84495 4.53713 9.00183 4.5 9.19305 4.5H9.21759ZM18.2789 8.5C18.5165 8.5 18.6657 8.53713 18.7961 8.60685C18.9264 8.67658 19.0287 8.77889 19.0985 8.90926C19.1682 9.03963 19.2053 9.18878 19.2053 9.42638V9.57362C19.2053 9.81122 19.1682 9.96037 19.0985 10.0907C19.0287 10.2211 18.9264 10.3234 18.7961 10.3931C18.6657 10.4629 18.5165 10.5 18.2789 10.5H18.1317C17.8941 10.5 17.745 10.4629 17.6146 10.3931C17.4842 10.3234 17.3819 10.2211 17.3122 10.0907C17.2425 9.96037 17.2053 9.81122 17.2053 9.57362V9.42638C17.2053 9.18878 17.2425 9.03963 17.3122 8.90926C17.3819 8.77889 17.4842 8.67658 17.6146 8.60685C17.745 8.53713 17.8941 8.5 18.1317 8.5H18.2789ZM16.2789 6.5C16.5165 6.5 16.6657 6.53713 16.7961 6.60685C16.9264 6.67658 17.0287 6.77889 17.0985 6.90926C17.1682 7.03963 17.2053 7.18878 17.2053 7.42638V7.57362C17.2053 7.81122 17.1682 7.96037 17.0985 8.09074C17.0287 8.22111 16.9264 8.32342 16.7961 8.39315C16.6657 8.46287 16.5165 8.5 16.2789 8.5H16.1317C15.8941 8.5 15.745 8.46287 15.6146 8.39315C15.4842 8.32342 15.3819 8.22111 15.3122 8.09074C15.2425 7.96037 15.2053 7.81122 15.2053 7.57362V7.42638C15.2053 7.18878 15.2425 7.03963 15.3122 6.90926C15.3819 6.77889 15.4842 6.67658 15.6146 6.60685C15.745 6.53713 15.8941 6.5 16.1317 6.5H16.2789ZM20.2789 6.5C20.5165 6.5 20.6657 6.53713 20.7961 6.60685C20.9264 6.67658 21.0287 6.77889 21.0985 6.90926C21.1682 7.03963 21.2053 7.18878 21.2053 7.42638V7.57362C21.2053 7.81122 21.1682 7.96037 21.0985 8.09074C21.0287 8.22111 20.9264 8.32342 20.7961 8.39315C20.6657 8.46287 20.5165 8.5 20.2789 8.5H20.1317C19.8941 8.5 19.745 8.46287 19.6146 8.39315C19.4842 8.32342 19.3819 8.22111 19.3122 8.09074C19.2425 7.96037 19.2053 7.81122 19.2053 7.57362V7.42638C19.2053 7.18878 19.2425 7.03963 19.3122 6.90926C19.3819 6.77889 19.4842 6.67658 19.6146 6.60685C19.745 6.53713 19.8941 6.5 20.1317 6.5H20.2789ZM18.2789 4.5C18.5165 4.5 18.6657 4.53713 18.7961 4.60685C18.9264 4.67658 19.0287 4.77889 19.0985 4.90926C19.1682 5.03963 19.2053 5.18878 19.2053 5.42638V5.57362C19.2053 5.81122 19.1682 5.96037 19.0985 6.09074C19.0287 6.22111 18.9264 6.32342 18.7961 6.39315C18.6657 6.46287 18.5165 6.5 18.2789 6.5H18.1317C17.8941 6.5 17.745 6.46287 17.6146 6.39315C17.4842 6.32342 17.3819 6.22111 17.3122 6.09074C17.2425 5.96037 17.2053 5.81122 17.2053 5.57362V5.42638C17.2053 5.18878 17.2425 5.03963 17.3122 4.90926C17.3819 4.77889 17.4842 4.67658 17.6146 4.60685C17.745 4.53713 17.8941 4.5 18.1317 4.5H18.2789Z" fill="white"/>
</svg>
