<svg width="24" height="21" viewBox="0 0 24 21" fill="none" xmlns="http://www.w3.org/2000/svg">
<path d="M6.73164 0.880005C3.12725 0.880005 0.205322 3.80194 0.205322 7.40632C0.205322 11.0191 1.6503 12.8274 7.69855 17.5316L10.4774 19.6929C11.1997 20.2547 12.211 20.2547 12.9332 19.6929L15.7121 17.5316C21.7603 12.8274 23.2053 11.0191 23.2053 7.40632C23.2053 3.80194 20.2834 0.880005 16.679 0.880005C14.8075 0.880005 13.1412 1.73037 11.7053 3.36655C10.2694 1.73037 8.60315 0.880005 6.73164 0.880005ZM6.73164 2.88C8.25082 2.88 9.6202 3.73752 10.8828 5.56335L11.0885 5.86069C11.3241 6.20137 11.7912 6.28656 12.1319 6.05097C12.2063 5.99953 12.2708 5.93507 12.3222 5.86069L12.5278 5.56335C13.7904 3.73752 15.1598 2.88 16.679 2.88C19.1788 2.88 21.2053 4.90651 21.2053 7.40632C21.2053 10.1866 20.0679 11.61 14.4842 15.9529L11.7053 18.1142L8.92643 15.9529C3.34278 11.61 2.20532 10.1866 2.20532 7.40632C2.20532 4.90651 4.23182 2.88 6.73164 2.88Z" fill="white"/>
</svg>
