<svg width="24" height="22" viewBox="0 0 24 22" fill="none" xmlns="http://www.w3.org/2000/svg">
<path fill-rule="evenodd" clip-rule="evenodd" d="M0.242138 10.4989C0.242138 4.83902 5.53115 0.5 11.7237 0.5C17.9163 0.5 23.2053 4.83902 23.2053 10.4989C23.2053 16.1589 17.9163 20.4979 11.7237 20.4979C10.3506 20.4979 9.03069 20.288 7.80572 19.9013C6.36088 21.2498 4.26157 21.898 1.69355 21.9989C0.64745 22.04 -0.107605 20.9519 0.330422 19.978C0.951826 18.5866 1.75472 16.9915 1.84993 15.6002C0.8331 14.1195 0.242138 12.3721 0.242138 10.4989ZM11.7237 2.5C6.33865 2.5 2.24214 6.21891 2.24214 10.4989C2.24214 12.0359 2.75677 13.4778 3.664 14.6996C3.79202 14.872 3.86114 15.081 3.86114 15.2957C3.86114 16.9295 3.20987 18.471 2.54671 19.9339C4.60278 19.7155 5.95162 19.0571 6.76497 18.1C7.03814 17.7786 7.48365 17.6631 7.87857 17.8114C9.05077 18.2516 10.3511 18.4979 11.7237 18.4979C17.1088 18.4979 21.2053 14.779 21.2053 10.4989C21.2053 6.21891 17.1088 2.5 11.7237 2.5Z" fill="white"/>
</svg>
