<svg width="17" height="16" viewBox="0 0 17 16" fill="none" xmlns="http://www.w3.org/2000/svg">
<path d="M0.998216 0.292893C1.38874 -0.0976309 2.0219 -0.0976309 2.41243 0.292893L8.70532 6.585L14.9982 0.292893C15.3587 -0.0675905 15.9259 -0.0953204 16.3182 0.209704L16.4124 0.292893C16.803 0.683418 16.803 1.31658 16.4124 1.70711L10.1203 8L16.4124 14.2929C16.7729 14.6534 16.8006 15.2206 16.4956 15.6129L16.4124 15.7071C16.0219 16.0976 15.3887 16.0976 14.9982 15.7071L8.70532 9.415L2.41243 15.7071C2.05194 16.0676 1.48471 16.0953 1.09242 15.7903L0.998216 15.7071C0.607691 15.3166 0.607691 14.6834 0.998216 14.2929L7.29032 8L0.998216 1.70711C0.637732 1.34662 0.610002 0.779392 0.915027 0.387101L0.998216 0.292893Z" fill="white"/>
</svg>
