<svg width="25" height="24" viewBox="0 0 25 24" fill="none" xmlns="http://www.w3.org/2000/svg">
<path d="M12.7054 0C19.3328 0 24.7054 5.37258 24.7054 12C24.7054 18.6274 19.3328 24 12.7054 24C6.07794 24 0.705353 18.6274 0.705353 12C0.705353 5.37258 6.07794 0 12.7054 0ZM12.7054 18.5C10.6194 18.5 8.62539 19.082 6.90857 20.149C8.54353 21.3146 10.5444 22 12.7054 22C14.8659 22 16.8664 21.3148 18.5014 20.15C16.7848 19.0818 14.791 18.5 12.7054 18.5ZM12.7054 2C7.18251 2 2.70535 6.47715 2.70535 12C2.70535 14.6157 3.70961 16.9968 5.35358 18.7788C7.49097 17.3082 10.0363 16.5 12.7054 16.5C15.3746 16.5 17.9203 17.3084 20.058 18.7774C21.7015 16.9959 22.7054 14.6152 22.7054 12C22.7054 6.47715 18.2282 2 12.7054 2ZM12.7054 5.5C15.3295 5.5 17.4554 7.62584 17.4554 10.25C17.4554 12.8742 15.3295 15 12.7054 15C10.0812 15 7.95535 12.8742 7.95535 10.25C7.95535 7.62584 10.0812 5.5 12.7054 5.5ZM12.7054 7.5C11.1858 7.5 9.95535 8.73041 9.95535 10.25C9.95535 11.7696 11.1858 13 12.7054 13C14.2249 13 15.4554 11.7696 15.4554 10.25C15.4554 8.73041 14.2249 7.5 12.7054 7.5Z" fill="white"/>
</svg>
