<svg width="25" height="17" viewBox="0 0 25 17" fill="none" xmlns="http://www.w3.org/2000/svg">
<path d="M18.375 0C23.9896 0 24.5 9.1875 24.5 12.25C24.5 15.3125 23.9896 16.3333 21.9479 16.3333C19.8383 16.3333 17.8696 11.0833 16.3383 11.0833H8.16667C6.63542 11.0833 4.67164 16.3333 2.55208 16.3333C0.510417 16.3333 0 15.3125 0 12.25C0 9.1875 0.510417 0 6.125 0H18.375ZM7.00497 2.625H6.71331C6.39114 2.625 6.12997 2.88617 6.12997 3.20833L6.12967 4.66667H4.67164C4.38527 4.66667 4.1471 4.87302 4.09771 5.14515L4.08831 5.25V5.54167C4.08831 5.86383 4.34947 6.125 4.67164 6.125H6.12967L6.12997 7.58333C6.12997 7.8697 6.33633 8.10788 6.60845 8.15727L6.71331 8.16667H7.00497C7.32714 8.16667 7.58831 7.9055 7.58831 7.58333L7.588 6.125H9.04664C9.33301 6.125 9.57118 5.91864 9.62058 5.64652L9.62997 5.54167V5.25C9.62997 4.92783 9.36881 4.66667 9.04664 4.66667H7.588L7.58831 3.20833C7.58831 2.92196 7.38195 2.68379 7.10983 2.6344L7.00497 2.625ZM17.7966 6.70833H17.505C17.1828 6.70833 16.9216 6.9695 16.9216 7.29167V7.58333C16.9216 7.9055 17.1828 8.16667 17.505 8.16667H17.7966C18.1188 8.16667 18.38 7.9055 18.38 7.58333V7.29167C18.38 6.9695 18.1188 6.70833 17.7966 6.70833ZM15.755 4.66667H15.4633C15.1411 4.66667 14.88 4.92783 14.88 5.25V5.54167C14.88 5.86383 15.1411 6.125 15.4633 6.125H15.755C16.0771 6.125 16.3383 5.86383 16.3383 5.54167V5.25C16.3383 4.92783 16.0771 4.66667 15.755 4.66667ZM19.8383 4.66667H19.5466C19.2245 4.66667 18.9633 4.92783 18.9633 5.25V5.54167C18.9633 5.86383 19.2245 6.125 19.5466 6.125H19.8383C20.1605 6.125 20.4216 5.86383 20.4216 5.54167V5.25C20.4216 4.92783 20.1605 4.66667 19.8383 4.66667ZM17.7966 2.625H17.505C17.1828 2.625 16.9216 2.88617 16.9216 3.20833V3.5C16.9216 3.82217 17.1828 4.08333 17.505 4.08333H17.7966C18.1188 4.08333 18.38 3.82217 18.38 3.5V3.20833C18.38 2.88617 18.1188 2.625 17.7966 2.625Z" fill="#6476CC"/>
</svg>
