<svg width="18" height="20" viewBox="0 0 18 20" fill="none" xmlns="http://www.w3.org/2000/svg">
<path d="M1.94386 13.5337C1.28958 15.2857 0.878506 16.5164 0.710631 17.2259C0.18364 19.4531 -0.199546 19.9547 1.76461 18.8963C3.72877 17.8378 13.2376 12.5946 15.359 11.4294C18.1245 9.91042 18.1614 10.0291 15.2107 8.41633C12.9633 7.188 3.56596 2.08155 1.76461 1.0789C-0.0367328 0.0762491 0.18364 0.522107 0.710631 2.74928C0.880682 3.46794 1.29773 4.70967 1.96177 6.47445C2.42409 7.7031 3.49204 8.60296 4.78131 8.8502L10.295 9.90753C10.3466 9.91774 10.38 9.96741 10.3697 10.0185C10.3622 10.0558 10.3327 10.085 10.295 10.0924L4.76887 11.1488C3.4754 11.396 2.40457 12.3 1.94386 13.5337Z" fill="#7B61FF"/>
</svg>
